<?xml version="1.0" standalone="no"?>
<!DOCTYPE svg PUBLIC "-//W3C//DTD SVG 20010904//EN"
 "http://www.w3.org/TR/2001/REC-SVG-20010904/DTD/svg10.dtd">
<svg version="1.0" xmlns="http://www.w3.org/2000/svg"
 width="700.000000pt" height="700.000000pt" viewBox="0 0 700.000000 700.000000"
 preserveAspectRatio="xMidYMid meet">
<metadata>
Created by potrace 1.14, written by Peter Selinger 2001-2017
</metadata>
<g transform="translate(0.000000,700.000000) scale(0.100000,-0.100000)"
fill="#000000" stroke="none">
<path d="M4115 6088 c-75 -9 -124 -24 -200 -60 -142 -69 -191 -125 -304 -348
-129 -254 -167 -312 -270 -420 -57 -59 -93 -108 -119 -159 -34 -68 -37 -82
-37 -158 0 -82 0 -83 -27 -89 -31 -6 -83 -86 -143 -217 -54 -120 -67 -170 -55
-203 6 -16 16 -32 22 -35 6 -4 -21 -62 -72 -150 -106 -187 -213 -406 -239
-493 -41 -133 -18 -212 77 -273 48 -31 65 -36 126 -38 44 -2 83 2 103 11 44
19 95 97 202 312 l91 181 31 -11 c17 -6 33 -16 35 -23 3 -7 -59 -138 -137
-291 -163 -322 -306 -620 -409 -854 -23 -52 -50 -113 -60 -135 -10 -22 -62
-137 -115 -255 -54 -118 -127 -276 -162 -350 -116 -239 -183 -381 -183 -384 0
-2 -18 -43 -40 -90 -22 -47 -40 -88 -40 -90 0 -3 -13 -33 -29 -68 -16 -35 -48
-103 -70 -152 -53 -116 -70 -172 -65 -224 7 -75 53 -136 126 -166 95 -40 176
-4 268 119 33 44 60 85 60 91 0 6 9 19 20 29 11 10 20 22 20 27 0 5 11 25 23
46 30 47 72 125 182 337 48 94 99 190 113 215 31 57 276 538 605 1190 140 278
270 534 289 570 20 36 69 128 111 205 84 158 96 179 217 395 48 85 109 198
135 250 77 154 214 342 263 362 15 6 46 10 70 9 120 -3 177 103 105 197 -39
51 -71 79 -228 199 -225 173 -363 296 -366 326 -5 49 58 176 105 212 62 47
146 40 294 -24 37 -16 121 -52 187 -81 145 -63 193 -80 248 -86 58 -7 91 8
123 55 22 35 26 49 22 94 -13 156 -310 401 -563 464 -117 28 -255 41 -340 31z"/>
<path d="M1285 4890 c-22 -4 -52 -11 -66 -13 -14 -3 -61 -20 -105 -38 -329
-136 -556 -412 -556 -674 0 -289 180 -550 597 -868 190 -144 273 -243 288
-342 10 -67 -42 -162 -114 -207 -46 -29 -121 -49 -186 -49 -79 -1 -160 35
-201 88 -26 35 -27 41 -32 197 -5 148 -7 166 -32 218 -68 145 -240 238 -401
216 -132 -18 -234 -93 -294 -216 -35 -71 -38 -82 -40 -174 -2 -110 16 -183 68
-285 88 -171 233 -289 445 -361 164 -56 264 -71 469 -72 354 -1 659 82 841
228 250 202 353 601 228 881 -53 117 -150 227 -339 382 -55 45 -114 93 -131
108 -17 14 -46 37 -64 51 -18 14 -38 30 -44 35 -6 6 -42 36 -81 66 -120 96
-174 169 -180 244 -7 109 121 245 231 245 90 0 137 -64 183 -249 38 -151 67
-212 130 -271 58 -54 129 -82 217 -86 118 -5 218 31 294 106 77 74 101 150 96
295 -4 99 -8 125 -33 188 -39 99 -118 190 -213 244 -55 31 -178 77 -235 87
-16 3 -41 8 -55 11 -69 14 -126 17 -375 20 -148 2 -288 0 -310 -5z"/>
<path d="M5226 4823 c-175 -40 -330 -199 -463 -473 -129 -267 -130 -402 -5
-469 52 -27 152 -13 217 32 31 21 174 139 210 174 83 78 129 85 315 48 55 -11
115 -17 181 -18 38 0 69 -3 69 -6 -1 -3 -29 -27 -63 -53 -34 -26 -73 -56 -87
-67 -14 -11 -52 -42 -86 -68 -100 -78 -496 -402 -534 -436 -13 -12 -149 -123
-203 -167 -11 -8 -24 -20 -31 -25 -6 -6 -78 -66 -161 -134 -177 -146 -327
-295 -374 -374 -51 -86 -81 -178 -87 -271 l-6 -82 73 -18 c160 -39 233 -32
404 41 44 19 100 42 125 50 64 23 205 21 282 -3 9 -3 25 -7 35 -9 24 -5 112
-34 263 -88 173 -62 272 -81 390 -74 334 18 650 301 720 646 50 249 -39 419
-229 438 -138 13 -204 -48 -231 -212 -31 -192 -50 -204 -222 -150 -43 14 -88
27 -100 29 -13 2 -52 11 -88 20 -75 17 -107 23 -170 32 -25 3 -46 7 -47 8 -1
1 47 42 108 90 60 49 115 93 122 100 7 6 39 33 72 61 33 27 65 54 71 60 6 5
37 33 69 60 32 28 63 55 69 60 6 6 52 46 101 90 49 44 106 94 125 112 19 17
44 40 56 50 31 27 203 184 233 213 25 23 88 77 216 183 127 106 205 209 229
299 15 60 13 112 -10 262 l-6 38 -92 -6 c-50 -3 -102 -8 -116 -11 -14 -3 -38
-8 -55 -11 -16 -3 -75 -16 -130 -29 -93 -22 -131 -30 -195 -42 -14 -2 -64 -6
-112 -7 -92 -4 -144 5 -398 69 -80 20 -163 38 -185 41 -91 11 -213 10 -269 -3z"/>
</g>
</svg>
